<?xml version="1.0" encoding="UTF-8" standalone="no"?>
<svg
   version="1.0"
   width="512.000000pt"
   height="512.000000pt"
   viewBox="0 0 512.000000 512.000000"
   preserveAspectRatio="xMidYMid meet"
   id="svg10"
   sodipodi:docname="score_leaderboard.svg"
   inkscape:version="1.1.2 (0a00cf5339, 2022-02-04)"
   xmlns:inkscape="http://www.inkscape.org/namespaces/inkscape"
   xmlns:sodipodi="http://sodipodi.sourceforge.net/DTD/sodipodi-0.dtd"
   xmlns="http://www.w3.org/2000/svg"
   xmlns:svg="http://www.w3.org/2000/svg">
  <defs
     id="defs14" />
  <sodipodi:namedview
     id="namedview12"
     pagecolor="#ffffff"
     bordercolor="#666666"
     borderopacity="1.0"
     inkscape:pageshadow="2"
     inkscape:pageopacity="0.0"
     inkscape:pagecheckerboard="0"
     inkscape:document-units="pt"
     showgrid="false"
     inkscape:zoom="0.61816406"
     inkscape:cx="423.02686"
     inkscape:cy="275.81675"
     inkscape:window-width="1850"
     inkscape:window-height="1016"
     inkscape:window-x="70"
     inkscape:window-y="27"
     inkscape:window-maximized="1"
     inkscape:current-layer="svg10" />
  <metadata
     id="metadata2">
Created by potrace 1.16, written by Peter Selinger 2001-2019
</metadata>
  <g
     transform="matrix(0.08130938,0,0,-0.08130938,48.296944,538.98333)"
     fill="#000000"
     stroke="none"
     id="g8">
    <path
       d="m 1690,4523 c -66,-24 -144,-107 -164,-173 -49,-165 25,-300 199,-364 l 31,-11 -82,-710 c -45,-390 -83,-720 -85,-732 -4,-23 -31,-5 -554,377 -27,20 -81,59 -119,86 -38,27 -80,58 -94,70 l -26,21 22,51 c 77,179 -53,382 -248,386 -118,2 -213,-54 -264,-156 -52,-105 -27,-249 59,-332 49,-48 135,-79 202,-74 l 53,5 14,-46 c 8,-25 63,-212 121,-416 58,-203 112,-390 120,-415 8,-25 44,-148 80,-275 37,-126 75,-260 86,-297 l 20,-68 h 1494 1493 l 11,33 c 5,17 26,86 45,152 308,1067 333,1152 366,1265 l 19,65 h 73 c 85,1 134,22 194,82 53,55 75,110 75,192 0,88 -28,156 -86,210 -60,56 -107,74 -190,75 -164,1 -285,-120 -285,-285 0,-39 7,-70 25,-104 13,-27 23,-50 22,-51 -1,0 -81,-59 -177,-130 -167,-124 -433,-319 -561,-412 -46,-34 -59,-39 -59,-26 0,14 -146,1298 -163,1436 -3,26 1,29 51,43 194,57 257,326 108,463 -63,58 -101,75 -182,80 -61,4 -80,1 -126,-20 -118,-54 -172,-138 -172,-263 0,-58 5,-79 29,-123 27,-49 71,-98 110,-119 17,-10 14,-18 -130,-318 -37,-77 -82,-171 -100,-210 -60,-129 -350,-742 -375,-792 l -15,-32 -15,32 c -7,18 -45,97 -83,177 -38,80 -84,177 -102,215 -18,39 -56,120 -85,180 -29,61 -69,146 -90,190 -21,44 -88,186 -149,315 -97,204 -109,235 -95,243 9,5 34,25 54,44 109,98 115,277 12,394 -68,77 -208,110 -312,72 z"
       id="path4" />
    <path
       d="M 1060,1095 V 930 h 1495 1495 v 165 165 H 2555 1060 Z"
       id="path6" />
  </g>
  <g
     aria-label="123"
     id="text2571"
     style="font-size:127.32px;line-height:1.25;font-family:OpenDyslexicMono;-inkscape-font-specification:'OpenDyslexicMono, Normal';stroke-width:0.75">
    <path
       d="m 136.17702,132.9876 c 0,-2.03712 1.01856,-3.183 3.05568,-3.183 h 14.25984 c 2.03712,0 3.183,-1.14588 3.183,-3.05568 V 69.327597 c 0,-2.16444 -1.2732,-3.183 -3.43764,-2.80104 l -15.53304,3.183 c -2.16444,0.38196 -3.43764,-0.6366 -3.43764,-2.80104 v -5.22012 c 0,-1.9098 1.01856,-2.92836 2.80104,-3.31032 l 17.57016,-3.56496 c 1.40052,-0.25464 2.41908,-0.38196 3.69228,-0.38196 h 7.6392 c 2.03712,0 3.05568,1.01856 3.05568,3.05568 v 69.262083 c 0,1.9098 1.14588,3.05568 3.183,3.05568 h 14.25984 c 2.03712,0 3.05568,1.14588 3.05568,3.183 v 11.20416 c 0,1.9098 -1.01856,3.05568 -3.05568,3.05568 H 139.2327 c -2.03712,0 -3.05568,-1.14588 -3.05568,-3.05568 z"
       id="path826" />
    <path
       d="m 281.44894,129.168 c 2.03712,0 3.183,1.14588 3.183,3.183 v 11.84076 c 0,1.9098 -1.14588,3.05568 -3.183,3.05568 h -52.71048 c -1.9098,0 -3.05568,-1.01856 -3.05568,-3.05568 v -12.732 c 0,-1.52784 0.50928,-2.67372 1.78248,-3.69228 5.98404,-4.96548 12.35004,-9.93096 18.97068,-15.02376 14.76912,-11.20416 19.47996,-17.188203 22.66296,-23.554203 1.52784,-3.05568 2.41908,-6.11136 2.41908,-9.16704 0,-9.80364 -7.6392,-16.67892 -18.71604,-16.67892 -7.0026,0 -14.38716,2.03712 -22.79028,6.23868 -2.29176,1.14588 -3.69228,0.25464 -3.69228,-2.16444 v -5.85672 c 0,-1.9098 0.76392,-2.92836 2.41908,-3.56496 9.03972,-3.43764 17.06088,-5.22012 23.80884,-5.22012 19.22532,0 31.57536,10.31292 31.57536,26.48256 0,7.6392 -2.41908,13.62324 -9.93096,22.917603 -1.14588,1.14588 -4.4562,4.71084 -9.93096,10.44024 -4.32888,4.4562 -7.38456,8.78508 -9.16704,13.11396 -1.01856,2.03712 0.25464,3.43764 2.5464,3.43764 z"
       id="path828" />
    <path
       d="m 362.93355,97.719957 c 10.1856,2.03712 15.915,10.440243 15.915,21.262443 0,19.98924 -13.11396,30.04752 -36.2862,30.04752 -7.0026,0 -14.38716,-1.2732 -22.281,-3.69228 -1.65516,-0.6366 -2.5464,-1.78248 -2.5464,-3.56496 v -12.85932 c 0,-2.41908 1.52784,-3.183 3.69228,-2.16444 6.23868,2.80104 13.24128,4.32888 20.75316,4.32888 7.89384,0 13.87788,-1.78248 18.07944,-5.34744 4.07424,-3.56496 6.11136,-6.366 6.11136,-8.53044 0,-8.53044 -8.02116,-15.66036 -21.77172,-15.66036 h -7.6392 c -2.03712,0 -3.183,-1.01856 -3.183,-3.055683 v -4.20156 c 0,-2.03712 1.14588,-3.05568 3.183,-3.05568 h 8.14848 c 12.35004,0 19.098,-5.0928 19.098,-14.38716 0,-9.42168 -6.87528,-14.76912 -19.60728,-14.76912 -5.98404,0 -12.60468,1.01856 -20.49852,3.43764 -2.16444,0.6366 -3.56496,-0.25464 -3.56496,-2.5464 v -3.43764 c 0,-1.9098 0.89124,-3.05568 2.67372,-3.56496 8.40312,-2.16444 15.78768,-3.183 22.53564,-3.183 19.098,0 30.93876,9.29436 30.93876,24.06348 0,9.16704 -4.83816,16.16964 -13.87788,19.35264 -1.9098,0.76392 -1.9098,1.01856 0.12732,1.52784 z"
       id="path830" />
  </g>
</svg>
